<svg xmlns="http://www.w3.org/2000/svg" viewBox="0 0 500 500"><g id="freepik--background-complete--inject-8"><path d="M333.31,106.83a25.55,25.55,0,0,1,6.2-2.69L340.79,98l10.37-.18,1.5,6.1a25.4,25.4,0,0,1,6.29,2.47l5.25-3.44,7.46,7.21-3.25,5.36a25.43,25.43,0,0,1,2.7,6.21l6.14,1.28.18,10.37-6.09,1.5a25.43,25.43,0,0,1-2.48,6.29l3.44,5.25-7.21,7.46-5.36-3.25a25.2,25.2,0,0,1-6.2,2.7l-1.28,6.14-10.38.18-1.49-6.09a25.5,25.5,0,0,1-6.3-2.48l-5.24,3.44-7.47-7.21,3.25-5.36a25.55,25.55,0,0,1-2.69-6.2l-6.14-1.28-.19-10.38,6.1-1.49a25.47,25.47,0,0,1,2.47-6.3l-3.43-5.24,7.2-7.47,5.37,3.25Zm5.53,13.83a11.13,11.13,0,1,0,15.74-.28A11.13,11.13,0,0,0,338.84,120.66Z" style="fill:#ebebeb"></path><path d="M274.55,39.85a33.47,33.47,0,0,1,8.25-3.59l1.7-8.17,13.8-.24,2,8.1a33.46,33.46,0,0,1,8.37,3.3l7-4.58,9.93,9.59-4.32,7.13a33.51,33.51,0,0,1,3.58,8.26l8.17,1.7.25,13.8-8.11,2a33.82,33.82,0,0,1-3.29,8.37l4.57,7-9.59,9.93L309.7,98.1a33.89,33.89,0,0,1-8.26,3.58l-1.7,8.17-13.8.25L284,102a33.82,33.82,0,0,1-8.37-3.29l-7,4.57-9.93-9.59L263,86.55a33.54,33.54,0,0,1-3.59-8.26l-8.17-1.7L251,62.79l8.1-2a33.46,33.46,0,0,1,3.3-8.37l-4.58-7,9.59-9.93,7.14,4.33Zm7.35,18.38a14.81,14.81,0,1,0,20.94-.36A14.81,14.81,0,0,0,281.9,58.23Z" style="fill:#ebebeb"></path><path d="M48.94,353.76a25.2,25.2,0,0,1,6.2-2.7l1.28-6.14,10.38-.18,1.49,6.09a25.62,25.62,0,0,1,6.3,2.47l5.24-3.43,7.47,7.21-3.25,5.36a25.55,25.55,0,0,1,2.69,6.2l6.14,1.28.19,10.38L87,381.79a25.62,25.62,0,0,1-2.47,6.3l3.43,5.24-7.2,7.47-5.37-3.25a25.55,25.55,0,0,1-6.2,2.69l-1.28,6.14-10.38.19L56,400.47A25.4,25.4,0,0,1,49.72,398l-5.25,3.43L37,394.22l3.26-5.36a25.2,25.2,0,0,1-2.7-6.2l-6.14-1.28L31.24,371l6.09-1.49a25.62,25.62,0,0,1,2.47-6.3L36.37,358l7.21-7.47,5.36,3.26Zm5.53,13.82a11.13,11.13,0,1,0,15.74-.28A11.13,11.13,0,0,0,54.47,367.58Z" style="fill:#ebebeb"></path><path d="M38.51,131.13A18.41,18.41,0,0,1,43,129.2l.92-4.41,7.45-.13L52.41,129a18.17,18.17,0,0,1,4.52,1.78l3.76-2.47,5.36,5.18-2.33,3.85a18.44,18.44,0,0,1,1.94,4.45l4.41.92.13,7.45-4.38,1.07A18.09,18.09,0,0,1,64,155.79l2.47,3.76-5.17,5.36-3.85-2.33A17.93,17.93,0,0,1,53,164.51l-.92,4.42-7.45.13-1.07-4.38a18,18,0,0,1-4.52-1.78l-3.77,2.47-5.36-5.18,2.33-3.85a18.08,18.08,0,0,1-1.93-4.45L25.93,151l-.13-7.45,4.37-1.07A18.26,18.26,0,0,1,32,137.93l-2.47-3.77,5.18-5.36,3.85,2.33Zm4,9.93a8,8,0,1,0,11.3-.2A8,8,0,0,0,42.48,141.06Z" style="fill:#f5f5f5"></path><path d="M449.42,161.83a14.62,14.62,0,0,1,3.52-1.53l.72-3.48,5.89-.1.85,3.45a14.91,14.91,0,0,1,3.57,1.41l3-2,4.24,4.09-1.85,3a13.87,13.87,0,0,1,1.53,3.52l3.49.72.1,5.89-3.46.85a14.48,14.48,0,0,1-1.4,3.57l2,3-4.09,4.24-3-1.85a13.87,13.87,0,0,1-3.52,1.53l-.73,3.49-5.88.1-.85-3.46a14.48,14.48,0,0,1-3.57-1.4l-3,1.95-4.24-4.09,1.85-3a13.87,13.87,0,0,1-1.53-3.52l-3.49-.73-.1-5.88,3.46-.85a14.48,14.48,0,0,1,1.4-3.57l-1.95-3,4.09-4.24,3,1.84Zm3.14,7.85a6.31,6.31,0,1,0,8.93-.16A6.31,6.31,0,0,0,452.56,169.68Z" style="fill:#f5f5f5"></path><path d="M423.35,83a14.79,14.79,0,0,1,3.52-1.53L427.6,78l5.88-.1.85,3.45a14.35,14.35,0,0,1,3.57,1.41l3-2,4.23,4.09-1.84,3a14.62,14.62,0,0,1,1.53,3.52l3.48.72.1,5.89-3.45.85a14.51,14.51,0,0,1-1.41,3.57l2,3-4.09,4.24-3-1.85a14.62,14.62,0,0,1-3.52,1.53l-.72,3.49-5.89.1-.85-3.46a14.48,14.48,0,0,1-3.57-1.4l-3,2L416.58,106l1.85-3a14.79,14.79,0,0,1-1.53-3.52l-3.48-.73-.11-5.88,3.46-.85a14.48,14.48,0,0,1,1.4-3.57l-1.95-3,4.09-4.23,3,1.84Zm3.14,7.84a6.32,6.32,0,1,0,8.93-.15A6.32,6.32,0,0,0,426.49,90.88Z" style="fill:#ebebeb"></path><path d="M369.46,45.37a24.52,24.52,0,0,1,5.91-2.57L376.59,37l9.89-.17,1.42,5.8a24.4,24.4,0,0,1,6,2.36l5-3.27L406,48.54l-3.1,5.11a24.14,24.14,0,0,1,2.57,5.91l5.85,1.22.18,9.88-5.81,1.43a24,24,0,0,1-2.36,6l3.28,5-6.87,7.12-5.11-3.1a24.14,24.14,0,0,1-5.91,2.57l-1.22,5.85-9.89.18-1.42-5.81a24.4,24.4,0,0,1-6-2.36l-5,3.28-7.11-6.87,3.1-5.11a24,24,0,0,1-2.57-5.92l-5.85-1.21-.18-9.89,5.81-1.42a23.86,23.86,0,0,1,2.36-6l-3.28-5,6.87-7.11,5.11,3.09Zm5.27,13.18a10.6,10.6,0,1,0,15-.27A10.61,10.61,0,0,0,374.73,58.55Z" style="fill:#f5f5f5"></path></g><g id="freepik--Floor--inject-8"><path d="M461.59,456c0,.15-94.74.26-211.58.26s-211.6-.11-211.6-.26,94.72-.26,211.6-.26S461.59,455.83,461.59,456Z" style="fill:#263238"></path></g><g id="freepik--Scalpel--inject-8"><path d="M54.67,285.69l-4.94-20.62s-10.9-.12-15.31-14.28c-3.31-10.64-7.11-25.44-8.08-32-1.72-11.69-.44-20.41,13.6-31.14l26.64,93.85Z" style="fill:#e0e0e0"></path><path d="M54.67,285.69l.78-.3,2.28-.83,8.81-3.14-.07.14L39.68,187.75l.41.14-1,.77a41.24,41.24,0,0,0-9.38,9.84,22.85,22.85,0,0,0-2.77,6,25.49,25.49,0,0,0-1,6.4,55.62,55.62,0,0,0,1.41,12.47c.84,4,1.79,7.88,2.74,11.61s1.95,7.3,2.94,10.72,1.84,6.75,3.36,9.59a19.17,19.17,0,0,0,5.86,6.88,15,15,0,0,0,7.4,2.77h.12l0,.11c1.52,6.5,2.73,11.64,3.55,15.18l.94,4.05.23,1.06a3.71,3.71,0,0,1,.08.37,1.87,1.87,0,0,1-.1-.34l-.26-1-1-4c-.87-3.55-2.14-8.7-3.74-15.23l.14.12a15.27,15.27,0,0,1-7.6-2.78,19.57,19.57,0,0,1-6-7c-1.56-2.9-2.39-6.26-3.42-9.66s-2-7-3-10.73-1.93-7.6-2.78-11.62a56.88,56.88,0,0,1-1.44-12.59,26.53,26.53,0,0,1,1-6.52,23.25,23.25,0,0,1,2.82-6.12,41.76,41.76,0,0,1,9.5-10l1-.78.3-.24.11.38,26.5,93.89,0,.11-.1,0-8.92,3-2.28.77Z" style="fill:#263238"></path><path d="M50.11,285.45l20.15-6.08,44,160.53A10.67,10.67,0,0,1,106.75,453h0a10.65,10.65,0,0,1-13.06-7.5Z" style="fill:#FF725E"></path><path d="M48.58,262s-11.09-49.56-12.64-55.1c-.84-3-8.55.78-7.24,9.86,1.58,10.93,8.26,34,11.42,38.8A17.51,17.51,0,0,0,48.58,262Z" style="fill:#f5f5f5"></path></g><g id="freepik--Syringe--inject-8"><polygon points="367.89 290.19 361.39 313.08 360.25 312.75 367.16 290.57 367.89 290.19" style="fill:#e0e0e0"></polygon><polygon points="352.77 331.74 351.97 334.53 346.36 335.65 321.74 421.25 336.12 425.39 360.86 339.35 356.73 336.02 357.56 333.11 352.77 331.74" style="fill:#ebebeb"></polygon><path d="M352.77,331.74l.29.06.91.23,3.62,1,.11,0,0,.1c-.24.85-.51,1.83-.81,2.91l-.05-.14,4.16,3.3.09.08,0,.11c-4.62,16.44-13.81,48.67-24.56,86.09l-.1.34-.35-.1-4.71-1.35-9.67-2.78-.35-.1.1-.35c11.16-38.75,20.59-71.21,24.83-85.54l0-.08.08,0,5.62-1.06-.06.06c.29-.93.5-1.62.66-2.12a4.09,4.09,0,0,1,.22-.65s0,.25-.17.71l-.55,2.1,0,.05h0l-5.59,1.18.11-.1c-4,14.4-13.28,46.9-24.41,85.66l-.25-.45,9.67,2.78,4.71,1.36-.45.25c10.77-37.42,20.1-69.61,24.93-86l.05.18-4.11-3.36-.07-.06,0-.08.86-2.9.07.14L354,332.14l-.91-.29Z" style="fill:#263238"></path><rect x="303.5" y="413.59" width="52.42" height="13.62" transform="translate(-165.44 621.08) rotate(-73.95)" style="fill:#ebebeb"></rect><path d="M332.35,445.1a1.83,1.83,0,0,1,.8,2.06l-.28,1a1.82,1.82,0,0,1-2.26,1.25l-17.38-5a1.83,1.83,0,0,1-1.25-2.26l.28-1a1.82,1.82,0,0,1,2.25-1.25l17.39,5A1.82,1.82,0,0,1,332.35,445.1Zm-.55,1.67a.42.42,0,0,0-.29-.53l-17.38-5a.43.43,0,0,0-.53.29l-.28,1a.42.42,0,0,0,0,.33.39.39,0,0,0,.25.2L331,448a.44.44,0,0,0,.53-.29Z" style="fill:#263238"></path><path d="M340.48,391.46,325,445.24l-4.85-1.39,15.47-53.78Zm-16.42,52.06,14.69-51.1-2.16-.63-14.7,51.1Z" style="fill:#263238"></path><rect x="303.04" y="415.83" width="54.57" height="3.65" transform="translate(-162.36 619.67) rotate(-73.95)" style="fill:#e0e0e0"></rect><polygon points="359.98 339.79 343.83 395.95 331.04 392.27 347.1 336.32 352.39 335.49 353.37 332.1 356.71 333.15 355.78 336.07 359.98 339.79" style="fill:#455a64"></polygon><polygon points="330.26 395.31 331.22 391.79 335.55 390.73 340.32 392.18 343.71 395.29 342.68 399.07 330.26 395.31" style="fill:#e0e0e0"></polygon><path d="M340.89,391.47l3.82,3.51-1.33,4.87-13.69-4.15,1.25-4.58,4.88-1.19Zm2.31,4-2.95-2.72-4.47-1.35-3.78.93-.67,2.45,11.14,3.38Z" style="fill:#e0e0e0"></path><path d="M358.74,312.51h2.74a.77.77,0,0,1,.77.77v1.57a.77.77,0,0,1-.77.77h-2.75a0,0,0,0,1,0,0v-3.12a0,0,0,0,1,0,0Z" transform="translate(-40.96 573.73) rotate(-73.96)" style="fill:#455a64"></path><path d="M341.63,424.93a1.69,1.69,0,0,1,.57.59,1.6,1.6,0,0,1,.14,1.23l-.23.78a1.62,1.62,0,0,1-2,1.11l-23.32-6.71a1.61,1.61,0,0,1-1.1-2l.23-.79a1.59,1.59,0,0,1,.76-1,1.6,1.6,0,0,1,1.23-.14l23.31,6.71A1.61,1.61,0,0,1,341.63,424.93Zm-24.49-4.36.05,0,23.31,6.71a.22.22,0,0,0,.27-.15l.23-.79a.25.25,0,0,0,0-.16.2.2,0,0,0-.13-.1l-23.32-6.71a.24.24,0,0,0-.26.15l-.23.78A.22.22,0,0,0,317.14,420.57Z" style="fill:#263238"></path><path d="M328.35,410.3h1.34a.66.66,0,0,1,.66.66v24.78a.66.66,0,0,1-.66.66h-1.34a.65.65,0,0,1-.65-.65V411a.66.66,0,0,1,.66-.66Z" transform="translate(-168.77 622.55) rotate(-73.96)" style="fill:#ebebeb"></path><rect x="320.93" y="434.47" width="3.26" height="20.34" rx="0.81" transform="translate(-193.9 631.74) rotate(-73.96)" style="fill:#e0e0e0"></rect><path d="M344.62,396.22c-.05.2-2.17-.24-4.73-1s-4.59-1.49-4.54-1.68,2.18.25,4.74,1S344.68,396,344.62,396.22Z" style="fill:#263238"></path><path d="M342.42,403.89c-.06.19-1.55-.07-3.34-.58s-3.2-1.09-3.15-1.29,1.55.07,3.35.59S342.47,403.7,342.42,403.89Z" style="fill:#263238"></path><path d="M340.59,410.26c-.06.2-2.18-.24-4.74-1s-4.59-1.49-4.53-1.68,2.17.25,4.73,1S340.64,410.07,340.59,410.26Z" style="fill:#263238"></path><path d="M338.38,417.93c-.05.19-1.55-.07-3.34-.58s-3.2-1.09-3.15-1.28,1.56.06,3.35.58S338.44,417.74,338.38,417.93Z" style="fill:#263238"></path><path d="M348.9,381.35c0,.19-2.17-.25-4.73-1s-4.59-1.49-4.54-1.68,2.18.25,4.74,1S349,381.15,348.9,381.35Z" style="fill:#263238"></path><path d="M346.7,389c-.06.2-1.55-.07-3.35-.58s-3.2-1.09-3.14-1.28,1.55.07,3.34.58S346.75,388.82,346.7,389Z" style="fill:#263238"></path><path d="M353.38,365.78c-.06.19-2.18-.25-4.74-1s-4.59-1.49-4.53-1.69,2.18.25,4.74,1S353.44,365.59,353.38,365.78Z" style="fill:#263238"></path><path d="M351.18,373.45c-.06.19-1.56-.07-3.35-.59s-3.2-1.09-3.14-1.28,1.55.07,3.34.58S351.23,373.25,351.18,373.45Z" style="fill:#263238"></path><path d="M357.79,350.46c-.06.19-2.18-.25-4.74-1s-4.59-1.49-4.53-1.68,2.17.25,4.73,1S357.84,350.26,357.79,350.46Z" style="fill:#263238"></path><path d="M355.58,358.12c-.05.2-1.55-.07-3.34-.58s-3.2-1.09-3.15-1.28,1.56.06,3.35.58S355.64,357.93,355.58,358.12Z" style="fill:#263238"></path><rect x="354.44" y="327.72" width="1.78" height="8.49" rx="0.44" transform="translate(-61.92 581.68) rotate(-73.95)" style="fill:#455a64"></rect><path d="M352,331l5.45-15.79a1.14,1.14,0,0,1,1.4-.72l2.71.78a1.14,1.14,0,0,1,.8,1.35l-3.63,15.94Z" style="fill:#455a64"></path><path d="M358.87,332.11c-.05.19-1.56-.08-3.37-.6s-3.22-1.09-3.17-1.28,1.57.07,3.37.59S358.93,331.91,358.87,332.11Z" style="fill:#263238"></path><path d="M358.07,333.68c-.05.19-1.49-.05-3.2-.55s-3.06-1.05-3-1.24,1.49.05,3.21.54S358.13,333.48,358.07,333.68Z" style="fill:#263238"></path></g><g id="freepik--Clipboard--inject-8"><rect x="75.78" y="68.22" width="257.83" height="365.95" rx="10.42" style="fill:#455a64"></rect><path d="M323.19,434.18l.8-.06a10.36,10.36,0,0,0,2.32-.45,10.44,10.44,0,0,0,6.54-6.15,10.21,10.21,0,0,0,.67-3.15c.06-1.14,0-2.35,0-3.61q0-3.79,0-8.29c0-6,0-12.89,0-20.67,0-31.12,0-76.14-.08-131.77,0-27.81,0-58.28,0-91q0-24.53,0-50.69,0-13.06,0-26.51,0-6.72,0-13.52a10.17,10.17,0,0,0-7.92-9.61,14.57,14.57,0,0,0-3.38-.26H86.23a10.17,10.17,0,0,0-10.18,9.67c0,5.25,0,10.52,0,15.76v31.23q0,31,0,61.05c0,40,0,78.64,0,115.43s0,71.73,0,104.44q0,6.13,0,12.16c0,2,0,4,0,6a10.18,10.18,0,0,0,1.85,5.44,10.34,10.34,0,0,0,4.45,3.57,10.73,10.73,0,0,0,2.77.7C86,434,87,434,88,434h11.5l43.66,0,131.76.08,35.82.05,9.32,0,3.17,0-3.17,0-9.32,0-35.82,0-131.76.08-43.66,0H88c-1,0-1.93,0-2.93-.06a11.2,11.2,0,0,1-2.88-.74,10.64,10.64,0,0,1-6.55-9.35c0-2,0-4,0-6q0-6,0-12.16c0-32.71,0-67.66,0-104.44s0-75.4,0-115.43q0-30,0-61.05V93.9c0-5.25,0-10.49,0-15.79a10.59,10.59,0,0,1,3.29-7.19,10.72,10.72,0,0,1,7.38-3H322.07a15.14,15.14,0,0,1,3.48.27,10.62,10.62,0,0,1,8.27,10q0,6.81,0,13.53v26.51q0,26.13,0,50.69c0,32.71,0,63.18,0,91,0,55.63-.07,100.65-.08,131.77,0,7.78,0,14.69,0,20.67q0,4.5,0,8.29c0,1.26,0,2.47,0,3.61a10,10,0,0,1-.69,3.18,10.51,10.51,0,0,1-3.17,4.33,10.7,10.7,0,0,1-3.44,1.84,10.9,10.9,0,0,1-2.34.43Z" style="fill:#263238"></path><g style="opacity:0.30000000000000004"><polygon points="96.33 425.09 312.52 423.91 315 382.13 308.38 356.94 94.36 390.38 96.33 425.09"></polygon></g><path d="M323.19,434.18l.8-.06a10.36,10.36,0,0,0,2.32-.45,10.44,10.44,0,0,0,6.54-6.15,10.21,10.21,0,0,0,.67-3.15c.06-1.14,0-2.35,0-3.61q0-3.79,0-8.29c0-6,0-12.89,0-20.67,0-31.12,0-76.14-.08-131.77,0-27.81,0-58.28,0-91q0-24.53,0-50.69,0-13.06,0-26.51,0-6.72,0-13.52a10.17,10.17,0,0,0-7.92-9.61,14.57,14.57,0,0,0-3.38-.26H86.23a10.17,10.17,0,0,0-10.18,9.67c0,5.25,0,10.52,0,15.76v31.23q0,31,0,61.05c0,40,0,78.64,0,115.43s0,71.73,0,104.44q0,6.13,0,12.16c0,2,0,4,0,6a10.18,10.18,0,0,0,1.85,5.44,10.34,10.34,0,0,0,4.45,3.57,10.73,10.73,0,0,0,2.77.7C86,434,87,434,88,434h11.5l43.66,0,131.76.08,35.82.05,9.32,0,3.17,0-3.17,0-9.32,0-35.82,0-131.76.08-43.66,0H88c-1,0-1.93,0-2.93-.06a11.2,11.2,0,0,1-2.88-.74,10.64,10.64,0,0,1-6.55-9.35c0-2,0-4,0-6q0-6,0-12.16c0-32.71,0-67.66,0-104.44s0-75.4,0-115.43q0-30,0-61.05V93.9c0-5.25,0-10.49,0-15.79a10.59,10.59,0,0,1,3.29-7.19,10.72,10.72,0,0,1,7.38-3H322.07a15.14,15.14,0,0,1,3.48.27,10.62,10.62,0,0,1,8.27,10q0,6.81,0,13.53v26.51q0,26.13,0,50.69c0,32.71,0,63.18,0,91,0,55.63-.07,100.65-.08,131.77,0,7.78,0,14.69,0,20.67q0,4.5,0,8.29c0,1.26,0,2.47,0,3.61a10,10,0,0,1-.69,3.18,10.51,10.51,0,0,1-3.17,4.33,10.7,10.7,0,0,1-3.44,1.84,10.9,10.9,0,0,1-2.34.43Z" style="fill:#263238"></path><polygon points="318.4 416.89 88.83 416.89 88.83 82.97 320.56 82.97 318.4 416.89" style="fill:#fff"></polygon><path d="M318.4,416.9c0-2.12.79-136.92,1.92-333.94l.24.24-230.62,0H88.83l.26-.26c0,125.55,0,241.46,0,333.92l-.21-.2,229.57.21-229.57.2h-.21v-.21c0-92.46,0-208.37-.05-333.92v-.26h1.37l230.62,0h.24V83C319.38,280,318.42,414.78,318.4,416.9Z" style="fill:#263238"></path><path d="M157.26,59.11H263.43a6.33,6.33,0,0,1,6.33,6.33V93.57a0,0,0,0,1,0,0H150.93a0,0,0,0,1,0,0V65.44A6.33,6.33,0,0,1,157.26,59.11Z" style="fill:#263238"></path><polygon points="225.47 46.15 195.22 46.15 198.76 72.07 221.54 72.07 225.47 46.15" style="fill:#263238"></polygon><path d="M262.12,59.11c0,.14-23.18.25-51.77.25s-51.78-.11-51.78-.25,23.18-.25,51.78-.25S262.12,59,262.12,59.11Z" style="fill:#455a64"></path><path d="M153.59,88c-.13,0-.25-4.87-.25-10.89s.12-10.88.25-10.88.25,4.87.25,10.88S153.73,88,153.59,88Z" style="fill:#455a64"></path><path d="M265.91,85.43a97.1,97.1,0,0,1-.25-9.88,97.39,97.39,0,0,1,.25-9.89c.13,0,.25,4.43.25,9.89S266,85.43,265.91,85.43Z" style="fill:#455a64"></path><path d="M260.18,90c0,.14-23.8.25-53.15.25s-53.15-.11-53.15-.25,23.79-.25,53.15-.25S260.18,89.88,260.18,90Z" style="fill:#455a64"></path><g style="opacity:0.30000000000000004"><polygon points="269.75 68.97 274.67 83.56 274.67 90.7 269.13 90.7 269.75 68.97"></polygon></g><rect x="220.37" y="126.83" width="68.93" height="9.58" rx="3.53" style="fill:#FF725E"></rect><rect x="111.64" y="275.27" width="50.55" height="9.58" rx="3.53" style="fill:#FF725E"></rect><rect x="111.64" y="295.51" width="81.92" height="9.58" rx="3.53" style="fill:#e0e0e0"></rect><rect x="111.64" y="315.75" width="81.92" height="9.58" rx="3.53" style="fill:#e0e0e0"></rect><rect x="111.64" y="335.98" width="81.92" height="9.58" rx="3.53" style="fill:#e0e0e0"></rect><rect x="111.64" y="382.96" width="185.2" height="9.58" rx="3.53" style="fill:#e0e0e0"></rect><rect x="111.64" y="356.22" width="32.6" height="9.58" rx="3.53" style="fill:#e0e0e0"></rect><rect x="211.04" y="275.27" width="81.92" height="9.58" rx="3.53" style="fill:#e0e0e0"></rect><rect x="208.23" y="239" width="81.92" height="9.58" rx="3.53" style="fill:#e0e0e0"></rect><rect x="211.04" y="295.51" width="27.19" height="9.58" rx="3.53" style="fill:#e0e0e0"></rect><rect x="209.58" y="315.75" width="81.92" height="9.58" rx="3.53" style="fill:#e0e0e0"></rect><rect x="209.58" y="334.51" width="23.07" height="9.58" rx="3.53" style="fill:#e0e0e0"></rect><rect x="245.24" y="295.51" width="46.26" height="9.58" rx="3.53" style="fill:#e0e0e0"></rect><rect x="159.11" y="356.22" width="32.6" height="9.58" rx="3.53" style="fill:#e0e0e0"></rect><rect x="208.12" y="155.05" width="57.66" height="9.58" rx="3.53" style="fill:#e0e0e0"></rect><rect x="208.12" y="196.82" width="57.66" height="9.58" rx="3.53" style="fill:#e0e0e0"></rect><rect x="208.12" y="175.94" width="93.44" height="9.58" rx="3.53" style="fill:#e0e0e0"></rect><rect x="274.32" y="155.05" width="24.49" height="9.58" rx="3.53" style="fill:#e0e0e0"></rect><rect x="208.12" y="217.7" width="24.49" height="9.58" rx="3.53" style="fill:#e0e0e0"></rect><rect x="274.74" y="196.73" width="24.49" height="9.58" rx="3.53" style="fill:#e0e0e0"></rect></g><g id="freepik--nose-2--inject-8"><circle cx="281.04" cy="216.52" r="81.64" style="fill:#fafafa"></circle><path d="M290.27,277.89c41.82-.87,39.8-32,39.8-32,0-9.84-14.23-18.77-22.51-27.68S297.19,195,289.42,184.62s-23.83-15.54-30.05-21.76c-4.49-4.49-2.71-17.75-1.37-24.76A81.64,81.64,0,0,0,281.23,298a92.48,92.48,0,0,0,10.17-.5C287.16,290.9,290.27,277.89,290.27,277.89Z" style="fill:#ffbf9d"></path><path d="M250.21,263c-.85-6.82,2.81-13.6,2.81-13.6-5.39,5.92-7.67,11.79-5.68,18.4s8.44,11.11,15,13.29C262.33,281.12,251.51,273.41,250.21,263Z" style="fill:#ff9a6c"></path><path d="M286.51,289.71a10.24,10.24,0,0,1,.38,3,10.81,10.81,0,0,1,0,3,7.43,7.43,0,0,1-.53-3A7.83,7.83,0,0,1,286.51,289.71Z" style="fill:#263238"></path><path d="M287.79,277.82a12.57,12.57,0,0,1-.41,3,11.16,11.16,0,0,1-.65,2.93,7.25,7.25,0,0,1,.14-3A6.69,6.69,0,0,1,287.79,277.82Z" style="fill:#263238"></path><path d="M298.67,274.69a8.53,8.53,0,0,1-2.88.88,8.93,8.93,0,0,1-3,.38,9.11,9.11,0,0,1,2.88-.89A9,9,0,0,1,298.67,274.69Z" style="fill:#263238"></path><path d="M309.85,270.41a12.66,12.66,0,0,1-5.47,2.46,27.59,27.59,0,0,1,5.47-2.46Z" style="fill:#263238"></path><path d="M319.36,263.17a7.39,7.39,0,0,1-2,2.29,7.49,7.49,0,0,1-2.48,1.72c-.09-.12.91-1,2.14-2.11A11.19,11.19,0,0,1,319.36,263.17Z" style="fill:#263238"></path><path d="M325.21,252.84a6.07,6.07,0,0,1-.68,2.95,6.45,6.45,0,0,1-1.57,2.59,14.38,14.38,0,0,1,1.09-2.79A16.93,16.93,0,0,1,325.21,252.84Z" style="fill:#263238"></path><path d="M324.18,241.08a6.26,6.26,0,0,1,1.2,2.78,6.18,6.18,0,0,1,.26,3,16.35,16.35,0,0,1-.76-2.89A15.72,15.72,0,0,1,324.18,241.08Z" style="fill:#263238"></path><path d="M317.27,231.36a7.54,7.54,0,0,1,2.24,2,7.1,7.1,0,0,1,1.69,2.51c-.12.09-1-.93-2.08-2.16A11.07,11.07,0,0,1,317.27,231.36Z" style="fill:#263238"></path><path d="M308.32,223.38a9,9,0,0,1,2.46,1.74c1.26,1.08,2.21,2,2.11,2.14a8.89,8.89,0,0,1-2.45-1.74A9,9,0,0,1,308.32,223.38Z" style="fill:#263238"></path><path d="M299.27,215.49a8.88,8.88,0,0,1,2.4,1.82,9.1,9.1,0,0,1,2.06,2.2,16.88,16.88,0,0,1-4.46-4Z" style="fill:#263238"></path><path d="M291.35,206.49a9,9,0,0,1,2.12,2.15,7.79,7.79,0,0,1,1.69,2.48,10,10,0,0,1-2.1-2.16A8.81,8.81,0,0,1,291.35,206.49Z" style="fill:#263238"></path><path d="M283.4,197.51c.11-.1,1.09.82,2.19,2.06a9,9,0,0,1,1.8,2.41,9.12,9.12,0,0,1-2.19-2.06A9,9,0,0,1,283.4,197.51Z" style="fill:#263238"></path><path d="M275.43,188.52a17.32,17.32,0,0,1,4,4.5c-.11.1-1.09-.83-2.18-2.07A9.17,9.17,0,0,1,275.43,188.52Z" style="fill:#263238"></path><path d="M267.63,179.41A17.5,17.5,0,0,1,271.5,184c-.11.1-1.06-.85-2.14-2.12A8.83,8.83,0,0,1,267.63,179.41Z" style="fill:#263238"></path><path d="M260.2,170a9,9,0,0,1,2,2.23,9.08,9.08,0,0,1,1.61,2.54,8.8,8.8,0,0,1-2-2.22A9.05,9.05,0,0,1,260.2,170Z" style="fill:#263238"></path><path d="M254.3,159.59a16,16,0,0,1,1.32,2.68,11.94,11.94,0,0,1,1.22,2.74,7.14,7.14,0,0,1-1.69-2.51A6.19,6.19,0,0,1,254.3,159.59Z" style="fill:#263238"></path><path d="M251.61,147.9a9,9,0,0,1,.8,2.9,8.83,8.83,0,0,1,.3,3,17.14,17.14,0,0,1-1.1-5.9Z" style="fill:#263238"></path><path d="M250.94,140.6c.15,0,.28.3.29.66s-.09.67-.24.67-.27-.28-.28-.65S250.8,140.6,250.94,140.6Z" style="fill:#263238"></path><path d="M301.41,262.46c-.61,3.12-3.73,6-6.51,7.24a16.88,16.88,0,0,1-9.45.74c-3-.54-5.6-1.52-7.19-3.16,0,0,4.11-4.46,13.51-6C297.77,260.27,301.41,262.46,301.41,262.46Z" style="fill:#ff9a6c"></path><path d="M304.81,263.21a6.22,6.22,0,0,1-1.35-.27c-.86-.2-2.1-.49-3.65-.81-3.06-.59-7.52-1.35-12.1.22a37.9,37.9,0,0,0-10.65,6c-2.51,1.9-4.05,3.16-4.15,3s.1-.06.28-.22.43-.37.77-.66c.67-.58,1.63-1.43,2.88-2.42a53.48,53.48,0,0,1,4.53-3.25,27.25,27.25,0,0,1,6.18-3,18.53,18.53,0,0,1,6.8-.91,32.48,32.48,0,0,1,5.54.82c1.54.36,2.78.72,3.63,1A7,7,0,0,1,304.81,263.21Z" style="fill:#263238"></path><path d="M266.69,283.5a2.4,2.4,0,0,1-.44-.17c-.28-.13-.69-.33-1.21-.6a38,38,0,0,1-4.22-2.61,31,31,0,0,1-5.44-5,24.1,24.1,0,0,1-4.49-7.83,19.13,19.13,0,0,1-.85-9,16.68,16.68,0,0,1,2.72-6.85,14.37,14.37,0,0,1,3.49-3.54,9.53,9.53,0,0,1,1.16-.7c.28-.14.42-.21.43-.19s-.55.35-1.47,1.05a15.43,15.43,0,0,0-3.3,3.59,16.64,16.64,0,0,0-2.56,6.71,19,19,0,0,0,.88,8.74,23.94,23.94,0,0,0,4.36,7.69,31.93,31.93,0,0,0,5.29,5,43.24,43.24,0,0,0,4.1,2.73A15.29,15.29,0,0,1,266.69,283.5Z" style="fill:#263238"></path><path d="M362.68,216.52s0-.45-.06-1.33,0-2.18-.17-3.88a80.92,80.92,0,0,0-5.68-25,79.71,79.71,0,0,0-5.69-11.48,82.5,82.5,0,0,0-20.71-23.15,81.18,81.18,0,0,0-34.3-15.21,83.09,83.09,0,0,0-31.9.37A86.55,86.55,0,0,0,253.28,140a81.61,81.61,0,0,0-37.84,28.38,80.34,80.34,0,0,0-6.64,10.69c-1,1.86-1.86,3.81-2.73,5.75s-1.6,4-2.25,6a80.66,80.66,0,0,0-3.1,12.59,89,89,0,0,0-1.06,13.1,87.9,87.9,0,0,0,1.06,13.1,78.48,78.48,0,0,0,3.1,12.59c.65,2.05,1.46,4,2.24,6s1.73,3.89,2.74,5.76a79.15,79.15,0,0,0,6.63,10.68,81.67,81.67,0,0,0,37.85,28.4,87,87,0,0,0,10.89,3.1,79.29,79.29,0,0,0,10.91,1.53,81,81,0,0,0,21-1.16,81.32,81.32,0,0,0,34.3-15.21,82.5,82.5,0,0,0,20.71-23.15,79.1,79.1,0,0,0,5.68-11.48,80.72,80.72,0,0,0,5.68-25c.15-1.7.12-3,.17-3.88s.06-1.32.06-1.32,0,.45,0,1.32,0,2.18-.13,3.89a80.12,80.12,0,0,1-2.24,14.77A81.17,81.17,0,0,1,357,246.78a79.9,79.9,0,0,1-5.66,11.54,82.88,82.88,0,0,1-20.74,23.3A81.59,81.59,0,0,1,296.16,297a82.91,82.91,0,0,1-32.09-.34,87.41,87.41,0,0,1-10.95-3.11A82.08,82.08,0,0,1,215,265a80.34,80.34,0,0,1-6.68-10.76c-1-1.87-1.87-3.83-2.75-5.79s-1.61-4-2.26-6a78.54,78.54,0,0,1-3.12-12.68,87.54,87.54,0,0,1-1.07-13.18,89,89,0,0,1,1.07-13.19,80.84,80.84,0,0,1,3.12-12.67c.65-2.06,1.47-4.05,2.26-6.05s1.75-3.91,2.75-5.79a82.1,82.1,0,0,1,44.78-39.28,85.8,85.8,0,0,1,10.95-3.12,83.21,83.21,0,0,1,32.08-.33,81.26,81.26,0,0,1,34.44,15.34,82.57,82.57,0,0,1,20.74,23.29A79,79,0,0,1,357,186.25a81.28,81.28,0,0,1,3.31,10.29,80.12,80.12,0,0,1,2.24,14.77c.14,1.7.09,3,.13,3.88S362.68,216.52,362.68,216.52Z" style="fill:#263238"></path></g><g id="freepik--nose-1--inject-8"><circle cx="242.68" cy="372.42" r="60.26" style="fill:#fafafa"></circle><path d="M252.55,420.23S265,417.86,273,411.69s9.59-13.45,6.75-19.95c-3.68-8.43-15.54-14.6-21.67-22.62-5.14-6.71-26-31.46-28.63-39.48a60.8,60.8,0,0,1-2.59-15.24A60.24,60.24,0,0,0,252.33,432C251.86,430,250.93,424.85,252.55,420.23Z" style="fill:#ffbf9d"></path><path d="M265.19,406.76a11.73,11.73,0,0,1-5.2,4.43,11.51,11.51,0,0,1-6.55.58,27.69,27.69,0,0,1-6-1.61,21.94,21.94,0,0,1,10.69-4.59A10.09,10.09,0,0,1,265.19,406.76Z" style="fill:#ff9a6c"></path><path d="M226.36,407.91c-.63-5,2.07-10,2.07-10-4,4.37-5.66,8.7-4.19,13.58s6.23,8.2,11.07,9.82C235.31,421.27,227.32,415.57,226.36,407.91Z" style="fill:#ff9a6c"></path><path d="M238,422.5a5.61,5.61,0,0,1-1.23-.54,26.44,26.44,0,0,1-3.13-1.91,22.43,22.43,0,0,1-4-3.67,17.7,17.7,0,0,1-3.32-5.8,14,14,0,0,1-.63-6.65,12.28,12.28,0,0,1,2-5.08,10.32,10.32,0,0,1,2.6-2.6,6.86,6.86,0,0,1,.86-.51c.21-.1.32-.15.33-.13a12.91,12.91,0,0,0-3.48,3.45,12.38,12.38,0,0,0-1.87,4.94,14,14,0,0,0,.65,6.42,17.91,17.91,0,0,0,3.2,5.65,23.73,23.73,0,0,0,3.89,3.68C236.33,421.59,238.07,422.42,238,422.5Z" style="fill:#263238"></path><path d="M302.94,372.42s0-.33-.05-1,0-1.61-.14-2.86A61.45,61.45,0,0,0,301,357.71a60.39,60.39,0,0,0-22-33.09,60.08,60.08,0,0,0-25.3-11.21,60,60,0,0,0-15.48-.85,60.87,60.87,0,0,0-8.05,1.13,66,66,0,0,0-8,2.29,60.06,60.06,0,0,0,0,112.87,62.27,62.27,0,0,0,8,2.29,58.89,58.89,0,0,0,8,1.13,59.69,59.69,0,0,0,15.49-.85,59.78,59.78,0,0,0,25.29-11.21,60.16,60.16,0,0,0,23.69-43.95c.12-1.26.09-2.22.14-2.87s.05-1,.05-1,0,1.32-.09,3.84a59.11,59.11,0,0,1-1.63,10.91,60.27,60.27,0,0,1-21.93,33.33,60.34,60.34,0,0,1-25.44,11.35,60.5,60.5,0,0,1-15.6.88,59.89,59.89,0,0,1-8.11-1.13,63.16,63.16,0,0,1-8.09-2.3,60.51,60.51,0,0,1,0-113.77,64.83,64.83,0,0,1,8.09-2.3,61.59,61.59,0,0,1,23.7-.24,60.17,60.17,0,0,1,25.44,11.34,60.87,60.87,0,0,1,15.31,17.21,59.83,59.83,0,0,1,6.62,16.12,58.44,58.44,0,0,1,1.64,10.91C303,371.09,302.94,372.42,302.94,372.42Z" style="fill:#263238"></path><path d="M266.36,407.37a15,15,0,0,0-3.51-1.35,16,16,0,0,0-8.9.93,27.68,27.68,0,0,0-7.81,4.66l-2.2,1.7a3.58,3.58,0,0,1-.86.57,4.11,4.11,0,0,1,.73-.72c.49-.45,1.2-1.08,2.1-1.84a37.14,37.14,0,0,1,3.3-2.54,22.12,22.12,0,0,1,4.56-2.32,15.56,15.56,0,0,1,9.17-.8,9.12,9.12,0,0,1,2.6,1.08A3,3,0,0,1,266.36,407.37Z" style="fill:#263238"></path><path d="M278.41,338c.09.12-5.24,4.15-11.89,9s-12.12,8.71-12.2,8.6,5.24-4.15,11.89-9S278.33,337.83,278.41,338Z" style="fill:#263238"></path><path d="M269,353.4a4.2,4.2,0,0,1-1,.27c-.66.13-1.62.32-2.81.53-2.37.44-5.65,1-9.28,1.58l-1.54.25-.48.08.2-.44c1.4-3,2.65-5.65,3.58-7.55.46-.95.84-1.71,1.12-2.23a3.72,3.72,0,0,1,.46-.78,3.16,3.16,0,0,1-.29.85c-.22.54-.55,1.32-1,2.29-.84,1.94-2.05,4.62-3.43,7.63l-.28-.36,1.55-.25c3.63-.59,6.92-1.09,9.3-1.43,1.2-.17,2.16-.3,2.83-.37A3.79,3.79,0,0,1,269,353.4Z" style="fill:#263238"></path></g><g id="freepik--character-2--inject-8"><path d="M393.68,426.48l.74,19s-19,7.12-19.22,10.63L412,456l.05-29.58Z" style="fill:#263238"></path><path d="M405.79,443.8a1.52,1.52,0,0,1,1,1.72,1.44,1.44,0,0,1-1.69,1.05,1.59,1.59,0,0,1-1.1-1.82,1.5,1.5,0,0,1,1.88-.9" style="fill:#e0e0e0"></path><path d="M412,456l-.11-3-35.24,1.23s-1.64.72-1.45,1.87Z" style="fill:#455a64"></path><path d="M393.82,445.25c0,.18.91.26,1.79.83s1.36,1.33,1.53,1.26-.11-1.11-1.19-1.78S393.78,445.09,393.82,445.25Z" style="fill:#fff"></path><path d="M390,446.86c0,.17.74.48,1.35,1.24s.79,1.56,1,1.55.29-1-.49-1.95S390,446.69,390,446.86Z" style="fill:#fff"></path><path d="M387.79,451.49c.16,0,.41-.86-.05-1.85s-1.31-1.37-1.39-1.22.45.68.82,1.49S387.61,451.47,387.79,451.49Z" style="fill:#fff"></path><path d="M394.13,440.91c.08.17.9-.08,1.92,0s1.81.38,1.9.23-.67-.79-1.87-.85S394,440.77,394.13,440.91Z" style="fill:#fff"></path><path d="M435.68,425.81l1.87,21.51-3.42,17.45a2.21,2.21,0,0,0,1.89,2.62h0a2.21,2.21,0,0,0,1.91-.7c3.08-3.36,14.38-15.8,14.15-17.36-.26-1.82-.47-22.83-.47-22.83Z" style="fill:#263238"></path><path d="M436,467.39l16-19.52.06.92a3.33,3.33,0,0,1-.65,2.2c-1.27,1.7-4.87,6.3-13.41,15.7a2.21,2.21,0,0,1-2,.7Z" style="fill:#455a64"></path><g style="opacity:0.6000000000000001"><path d="M447.12,441.2a1.35,1.35,0,0,0-.26,1.77,1.29,1.29,0,0,0,1.76.27,1.4,1.4,0,0,0,.25-1.87,1.33,1.33,0,0,0-1.85-.08" style="fill:#fff"></path></g><path d="M440.35,457.66a4.75,4.75,0,0,0-4.51-1.87c0-.06.24-.24.74-.34a3.38,3.38,0,0,1,1.95.21,3.52,3.52,0,0,1,1.53,1.23C440.34,457.32,440.4,457.64,440.35,457.66Z" style="fill:#fff"></path><path d="M439,460.64a17.77,17.77,0,0,0-2-.8,16.45,16.45,0,0,0-2.12-.14,2.42,2.42,0,0,1,2.22-.33A2.49,2.49,0,0,1,439,460.64Z" style="fill:#fff"></path><path d="M443,453.77a23.66,23.66,0,0,0-3-1.44,21.13,21.13,0,0,0-3.24-.54,4.88,4.88,0,0,1,3.39.09A5,5,0,0,1,443,453.77Z" style="fill:#fff"></path><path d="M442.94,447.19c-.05.13-1.27-.29-2.82-.25s-2.76.5-2.81.37a5.47,5.47,0,0,1,5.63-.12Z" style="fill:#fff"></path><path d="M442.55,440.86a11.14,11.14,0,0,0-2.93-.34,10.56,10.56,0,0,0-2.81.91c0-.05.18-.33.65-.65a4.81,4.81,0,0,1,4.32-.43C442.31,440.57,442.58,440.81,442.55,440.86Z" style="fill:#fff"></path><path d="M439.58,439.32a1.76,1.76,0,0,1-.08-.82,5.47,5.47,0,0,1,.51-2.17,2.53,2.53,0,0,1,1-1.27.89.89,0,0,1,1,.13,1.4,1.4,0,0,1,.4.95,3.13,3.13,0,0,1-2.55,3.07,3.62,3.62,0,0,1-3.67-1.67,1.24,1.24,0,0,1-.13-1A.87.87,0,0,1,437,436a3.12,3.12,0,0,1,1.47.65,6.45,6.45,0,0,1,1.58,1.58,2,2,0,0,1,.38.72,10.52,10.52,0,0,0-2.15-2,2.82,2.82,0,0,0-1.29-.53.45.45,0,0,0-.48.28.86.86,0,0,0,.12.67,3.23,3.23,0,0,0,3.21,1.41,2.71,2.71,0,0,0,2.2-2.57,1.09,1.09,0,0,0-.25-.67.47.47,0,0,0-.56-.08,2.25,2.25,0,0,0-.87,1.05A8.32,8.32,0,0,0,439.58,439.32Z" style="fill:#fff"></path><path d="M378.82,275.1s-3.16,12.81-2.21,25.2C377,305.09,391.19,440,391.19,440h22.23l-6.25-126.84,1.79.39s11.92,53.15,12.89,61.75c.87,7.74,10.93,63.93,10.93,63.93l20,.23-6.37-74.33L439,293.85l-2.8-20.76Z" style="fill:#263238"></path><path d="M410.61,300.48a4.49,4.49,0,0,1-.91.51,10.37,10.37,0,0,1-2.7.95,5.69,5.69,0,0,1-2,0,4.07,4.07,0,0,1-2.1-1,5,5,0,0,1-1.27-2.23c-.26-.85-.41-1.73-.59-2.62-.7-3.6-1.17-6.88-1.44-9.27-.14-1.19-.23-2.16-.28-2.82a4.67,4.67,0,0,1,0-1.05,5.12,5.12,0,0,1,.21,1c.11.76.25,1.7.42,2.81.36,2.37.88,5.63,1.57,9.22.36,1.77.6,3.58,1.7,4.63a4.56,4.56,0,0,0,3.77,1,12.71,12.71,0,0,0,2.69-.79A4.75,4.75,0,0,1,410.61,300.48Z" style="fill:#263238"></path><path d="M404,283.58s.14-.12.45-.14a2,2,0,0,1,1.22.4,2.17,2.17,0,0,1,.92,1.68,2,2,0,0,1-1.4,1.88,2.06,2.06,0,0,1-2.29-.49,2.19,2.19,0,0,1-.41-1.88,2,2,0,0,1,.66-1.1c.24-.19.42-.21.43-.19a2.41,2.41,0,0,0-.77,1.35,1.93,1.93,0,0,0,.41,1.54,1.66,1.66,0,0,0,1.81.34,1.64,1.64,0,0,0,1.13-1.45,1.84,1.84,0,0,0-.69-1.42A2.42,2.42,0,0,0,404,283.58Z" style="fill:#263238"></path><path d="M438.64,292.57a2.31,2.31,0,0,1-.74.11,13,13,0,0,1-2,0,19.85,19.85,0,0,1-6.57-1.53,19.54,19.54,0,0,1-5.69-3.64,14.54,14.54,0,0,1-1.41-1.48,2.55,2.55,0,0,1-.44-.61c.06-.06.76.75,2.07,1.85a22,22,0,0,0,12.07,5.08C437.57,292.54,438.64,292.48,438.64,292.57Z" style="fill:#263238"></path><path d="M385.56,284a10.16,10.16,0,0,1-1,2.23,24.94,24.94,0,0,1-3.37,4.69,23.08,23.08,0,0,1-4.28,3.66,7.81,7.81,0,0,1-2,1.07,19.37,19.37,0,0,1,1.86-1.35,28.78,28.78,0,0,0,4.14-3.71,30.34,30.34,0,0,0,3.42-4.54A21.43,21.43,0,0,1,385.56,284Z" style="fill:#263238"></path><path d="M413.85,128.74a4.16,4.16,0,0,0-4.29-2.21,5.71,5.71,0,0,0-7,0,5.08,5.08,0,0,0-7.74,4,4.24,4.24,0,0,0-3.85,7.06,4.08,4.08,0,0,0,1.55,8l20.5-12A4.19,4.19,0,0,0,413.85,128.74Z" style="fill:#263238"></path><path d="M391.89,146.09a17.29,17.29,0,0,1,17.56-15.54l.9,0c9.64.76,14.38,9.37,13.35,19l-2.06,32.12-1.41,4-16.61,20.82-4.19-18.75-.08-8.71s-9.25-1.63-9.17-10.91C390.22,163.65,391,154.43,391.89,146.09Z" style="fill:#ae7461"></path><path d="M399.37,179.07a22.46,22.46,0,0,0,12.14-3.34s-3,6.64-12.13,5.64Z" style="fill:#6f4439"></path><path d="M394.4,154.74a1.32,1.32,0,0,0,1.25,1.36,1.26,1.26,0,0,0,1.39-1.16,1.33,1.33,0,0,0-1.25-1.37A1.27,1.27,0,0,0,394.4,154.74Z" style="fill:#263238"></path><path d="M393.68,151.14c.16.18,1.18-.54,2.6-.51s2.46.77,2.62.6-.09-.4-.53-.74a3.72,3.72,0,0,0-2.09-.69,3.47,3.47,0,0,0-2.08.63C393.75,150.75,393.6,151.06,393.68,151.14Z" style="fill:#263238"></path><path d="M406.61,155.6a1.33,1.33,0,0,0,1.25,1.37,1.27,1.27,0,0,0,1.39-1.17,1.33,1.33,0,0,0-1.25-1.37A1.27,1.27,0,0,0,406.61,155.6Z" style="fill:#263238"></path><path d="M407.32,151.22c.16.18,1.18-.54,2.61-.51s2.45.77,2.61.6-.08-.39-.53-.73a3.67,3.67,0,0,0-2.09-.7,3.5,3.5,0,0,0-2.08.63C407.4,150.84,407.24,151.15,407.32,151.22Z" style="fill:#263238"></path><path d="M402.41,161.69a9.55,9.55,0,0,0-2.31-.46c-.36,0-.71-.13-.76-.38a1.88,1.88,0,0,1,.26-1.07l1.14-2.75a50.21,50.21,0,0,0,2.57-7.2c-.16-.06-1.57,3.06-3.15,7q-.57,1.44-1.08,2.76a2.08,2.08,0,0,0-.22,1.43.89.89,0,0,0,.58.54,2.2,2.2,0,0,0,.62.1A8.64,8.64,0,0,0,402.41,161.69Z" style="fill:#263238"></path><path d="M407.39,147.15c.16.37,1.39.07,2.89.12s2.72.39,2.89,0c.07-.18-.18-.52-.69-.84a4.42,4.42,0,0,0-2.21-.63,4.24,4.24,0,0,0-2.2.51C407.56,146.64,407.32,147,407.39,147.15Z" style="fill:#263238"></path><path d="M394.08,147.24c.22.35,1.23.11,2.41.22s2.14.44,2.41.12c.12-.15,0-.49-.41-.84a3.35,3.35,0,0,0-1.9-.73,3.44,3.44,0,0,0-2,.45C394.16,146.75,394,147.07,394.08,147.24Z" style="fill:#263238"></path><path d="M392.87,141.85s2.57-5.76,5.4-7c3.42-1.58,4.81,2.18,8.06,1.34s6.52-2.34,9.77.22c3.56,2.81,1.83,4.7,2,8.82.56,16.71,3.51,21.49,4.54,13.65.11-.86,2.51-1.5,2.94-5.13.56-4.71.86-10.44-.12-13.81-.83-2.84-2.4-4.82-5.24-7-4.49-3.49-10.75-3.69-15-3.35S392.63,134.57,392.87,141.85Z" style="fill:#263238"></path><path d="M422,158.56a2.53,2.53,0,0,1,2.77-2.37c1.73.2,3.63,1.22,3.44,4.8-.33,6.34-6.62,4.69-6.63,4.51S421.86,161.21,422,158.56Z" style="fill:#ae7461"></path><path d="M423.11,163.19s.11.08.29.18a1.15,1.15,0,0,0,.82.06,2.77,2.77,0,0,0,1.4-2.39,3.79,3.79,0,0,0-.23-1.6,1.28,1.28,0,0,0-.79-.89.56.56,0,0,0-.66.27c-.1.17-.06.3-.1.31s-.13-.11-.06-.37a.66.66,0,0,1,.27-.38.78.78,0,0,1,.61-.13,1.56,1.56,0,0,1,1.11,1,3.84,3.84,0,0,1,.29,1.79,2.88,2.88,0,0,1-1.76,2.65,1.19,1.19,0,0,1-1-.22C423.11,163.34,423.09,163.2,423.11,163.19Z" style="fill:#6f4439"></path><path d="M422.15,146.27a6,6,0,0,1-2.71,1.18,2.07,2.07,0,0,1-2.27-1.5c-.06-.44.05-.95-.23-1.3s-1-.3-1.51-.25a4.06,4.06,0,0,1-4.14-3,1.71,1.71,0,0,1-2.29.16,9.23,9.23,0,0,1-1.69-1.88,2.57,2.57,0,0,0-2.15-1.13,6.83,6.83,0,0,1-1.39.27c-.83-.09-1.22-1.07-1.33-1.9s-.18-1.8-.88-2.26a3.31,3.31,0,0,0-2.27-.11c-.76.1-1.75-.1-1.93-.86a1.46,1.46,0,0,1,.31-1.14,4.11,4.11,0,0,1,4.88-1.46,5.57,5.57,0,0,1,10.25-.87,5.65,5.65,0,0,1,9,2.25,4.1,4.1,0,0,1,4.5,6.05,3.9,3.9,0,0,1,2.07,3.14,2.23,2.23,0,0,1-2.57,2.23,2.27,2.27,0,0,1-4,2.18" style="fill:#263238"></path><path d="M405.89,164a.53.53,0,0,1,.42-.07.5.5,0,0,1,.24.29,3.21,3.21,0,0,1-.35,3.07l0,0a2.13,2.13,0,0,1-3.59-.46l-.5-1.06Z" style="fill:#6f4439"></path><path d="M402.94,167.42c-.05,0,.42.65,1.57.79a1.84,1.84,0,0,0,.93-.16,2,2,0,0,0,.88-.63,3.82,3.82,0,0,0,.64-2.32c0-.22,0-.41,0-.64a1,1,0,0,0-.38-.64.76.76,0,0,0-.73,0l-.49.24-1.68.88a7.05,7.05,0,0,0-1.49.9,7.75,7.75,0,0,0,1.62-.64l1.72-.79c.3-.13.71-.4.84-.28s.22.55.22.94a3.61,3.61,0,0,1-.52,2.07,1.86,1.86,0,0,1-.72.56,1.46,1.46,0,0,1-.77.17A3.88,3.88,0,0,1,402.94,167.42Z" style="fill:#263238"></path><path d="M426.26,143.89a1.53,1.53,0,0,1-.42,1.22,2,2,0,0,1-1.29.73,2.17,2.17,0,0,1-1.79-.57l.26,0a6.41,6.41,0,0,1-1.29,1.56,3.81,3.81,0,0,1-1.18.69,2.42,2.42,0,0,1-1.27.09,2.45,2.45,0,0,1-1.81-1.09,3.53,3.53,0,0,1-.49-1.33,1.25,1.25,0,0,1,0-.51s.08.17.18.48a4.33,4.33,0,0,0,.56,1.22,2.59,2.59,0,0,0,3.81.17,6.69,6.69,0,0,0,1.24-1.46l.11-.19.16.15a1.88,1.88,0,0,0,2.68-.06A3.11,3.11,0,0,0,426.26,143.89Z" style="fill:#455a64"></path><path d="M414.57,129.16s-.16,0-.45.15a2.22,2.22,0,0,0-1,.82l-.08.12-.09-.12a7.89,7.89,0,0,0-3-2.55,6.25,6.25,0,0,0-2.49-.6,5.29,5.29,0,0,0-4.33,2.2,4.27,4.27,0,0,0-.74,1.9l0,.2-.19-.06a3.6,3.6,0,0,0-2.65.27,3.47,3.47,0,0,0-1.47,1.51,4.87,4.87,0,0,0-.44,1.88,1.45,1.45,0,0,1-.06-.52,3.51,3.51,0,0,1,.31-1.44,3.66,3.66,0,0,1,1.53-1.68,3.81,3.81,0,0,1,2.87-.34l-.21.14a4.48,4.48,0,0,1,.77-2.06,5.61,5.61,0,0,1,1.75-1.6,5.41,5.41,0,0,1,2.89-.75,6.46,6.46,0,0,1,2.62.67,7.64,7.64,0,0,1,3,2.72H413a2.16,2.16,0,0,1,1.14-.8A1,1,0,0,1,414.57,129.16Z" style="fill:#455a64"></path><path d="M349.8,224.74,347,223.05s-3.62-3.23-4.61-3.93a22.38,22.38,0,0,0-5.33-2.38c-.54,0-5.77-.28-7-.86s-2.59-1.34-2.59-1.34a1.9,1.9,0,0,0-.13,2.24c.75,1.29,4.57,3.72,4.57,3.72l-1.44,9.36s3.57,2.81,5.79,3,4.35-.25,5,0,2.18.74,2.18.74Z" style="fill:#ae7461"></path><polygon points="339.9 225.36 315.6 209.24 314.21 211.27 338.29 227.32 339.9 225.36" style="fill:#263238"></polygon><path d="M326.25,220.59a1.66,1.66,0,0,0-.88,2.46c1,1.69,2.25,1.16,2.25,1.16a2.53,2.53,0,0,0,1.65,2.82,3.17,3.17,0,0,0,1.22,2.83l1.18.61.76-1.45s4.44-.41,5.11-2.18l0-.92a1.33,1.33,0,0,0,.72-1.3c-.14-.86-.09-.88-1.76-1.45s-5.22-.2-5.22-.2,1.9-.72,1.87-1.71-.79-1.61-2.83-1.46A20.34,20.34,0,0,0,326.25,220.59Z" style="fill:#ae7461"></path><path d="M326.25,220.59a5.38,5.38,0,0,0,.73-.16c.48-.11,1.18-.27,2.08-.4q.69-.1,1.5-.15a4.33,4.33,0,0,1,1.72.23,1.29,1.29,0,0,1,.65.59,1.06,1.06,0,0,1,.05.9,1.93,1.93,0,0,1-.72.73,5.44,5.44,0,0,1-1,.51l-.85.35.91-.08a19.38,19.38,0,0,1,4.37,0,5.81,5.81,0,0,1,1.12.3,4.1,4.1,0,0,1,1.06.47.62.62,0,0,1,.21.45l.05.3a.82.82,0,0,1,0,.27,1.24,1.24,0,0,1-.64.86l-.09,0v.09c0,.29,0,.61,0,.92v-.05a2.12,2.12,0,0,1-.11.21,2.61,2.61,0,0,1-1,.85,8.06,8.06,0,0,1-1.26.5,14.36,14.36,0,0,1-2.61.52h-.08l0,.07c-.26.5-.51,1-.75,1.46l.2-.06-1.18-.61h0a3,3,0,0,1-1.18-2.69V227l-.09,0a2.91,2.91,0,0,1-1.32-1.14,2.27,2.27,0,0,1-.27-1.53l0-.2-.19.07a1.48,1.48,0,0,1-1.15-.1,2.35,2.35,0,0,1-.8-.73,2.84,2.84,0,0,1-.43-.85,1.33,1.33,0,0,1,0-.77,1.82,1.82,0,0,1,.69-.85c.21-.15.33-.21.33-.22a1,1,0,0,0-.37.17,1.84,1.84,0,0,0-.77.86,1.5,1.5,0,0,0-.06.85,3.13,3.13,0,0,0,.43.91,2.56,2.56,0,0,0,.86.8,1.68,1.68,0,0,0,1.33.14l-.15-.13a2.45,2.45,0,0,0,.27,1.7,3.08,3.08,0,0,0,1.42,1.26l-.08-.13a3.43,3.43,0,0,0,.23,1.6,3,3,0,0,0,1.05,1.36h0l1.17.61.14.07.07-.13.76-1.45-.13.08a14.81,14.81,0,0,0,2.67-.52,7.14,7.14,0,0,0,1.32-.53,2.91,2.91,0,0,0,1.13-1l.14-.25v-.06l0-.92-.09.14a1.55,1.55,0,0,0,.82-1.1,1.45,1.45,0,0,0,0-.36l0-.31a1.05,1.05,0,0,0-.33-.64,4.5,4.5,0,0,0-1.15-.52,6.22,6.22,0,0,0-1.18-.31,19.4,19.4,0,0,0-4.45,0l.07.26a5.15,5.15,0,0,0,1-.55,2.22,2.22,0,0,0,.8-.84,1.41,1.41,0,0,0-.84-1.81,4.17,4.17,0,0,0-1.81-.21,12.46,12.46,0,0,0-1.52.18,16.66,16.66,0,0,0-2.08.48c-.24.07-.41.12-.53.17Z" style="fill:#6f4439"></path><path d="M329.78,227.08a21.91,21.91,0,0,1,3.83-1.13,20.49,20.49,0,0,1,4-.06,3.4,3.4,0,0,0-1.16-.29,10.34,10.34,0,0,0-2.88,0,10.16,10.16,0,0,0-2.77.83A3.4,3.4,0,0,0,329.78,227.08Z" style="fill:#6f4439"></path><path d="M327.69,224.34c.06.07.88-.47,2-.79s2.15-.4,2.14-.49a4.13,4.13,0,0,0-2.23.18A3.54,3.54,0,0,0,327.69,224.34Z" style="fill:#6f4439"></path><path d="M447.18,203.91s10.79,46.46,9.65,60.65-3.3,35-3.3,35l-15.18-.84,1.5-38.68-6.27-28.25Z" style="fill:#e0e0e0"></path><path d="M423.93,186.84l-2.05-6.21-15,7.41-2.75,6.81-1.72-7.2L398.68,182l-3.43,4.28L381,190.48a16.42,16.42,0,0,0-9.76,7.94L363.71,231l-16.49-8.45-6.29,13.76,18.74,12.5A11.93,11.93,0,0,0,375.61,246l.36,4.33-.65,24.11,3.19,4,3.25.87c1.13.31,2.72.74,4.55,1.21h0c5,1.29,11.84,2.86,16.3,3.17,7.76.53,20.13-1.6,20.13-1.6V240.74l4.41-41Z" style="fill:#FF725E"></path><path d="M407.17,188.49a9.13,9.13,0,0,0,1.09,1.63c.73,1,1.78,2.4,3,4l.11.14.17-.08c1-.47,2.17-1,3.33-1.63a70.38,70.38,0,0,0,6.52-3.85,15.67,15.67,0,0,0,2.51-1.88,23.27,23.27,0,0,0-2.7,1.58c-1.65,1-4,2.35-6.56,3.71-1.15.6-2.27,1.16-3.3,1.65l.28.07c-1.27-1.6-2.37-3-3.16-3.91A8.93,8.93,0,0,0,407.17,188.49Z" style="fill:#263238"></path><path d="M394.86,186.43a17.05,17.05,0,0,0,2.88,5.57q.19.28.39.54l.18.25.21-.24a33.11,33.11,0,0,0,3.46-4.4,34.32,34.32,0,0,0-3.84,4.08h.39l-.39-.53C396.13,188.93,395,186.37,394.86,186.43Z" style="fill:#263238"></path><path d="M399.25,283.17s0-.07,0-.22,0-.37,0-.64c0-.59.05-1.43.09-2.49.08-2.19.18-5.31.31-9.17.27-7.73.69-18.41,1.3-30.21s1.29-22.46,1.83-30.19c.26-3.84.48-7,.63-9.14.08-1.06.13-1.9.17-2.49,0-.27,0-.48,0-.64v-.23a.86.86,0,0,0,0,.22c0,.17,0,.38-.06.65-.06.59-.13,1.42-.23,2.48-.19,2.16-.45,5.28-.74,9.14-.59,7.72-1.31,18.39-1.92,30.19s-1,22.48-1.21,30.22c-.1,3.87-.17,7-.2,9.16,0,1.07,0,1.91,0,2.49V283A.72.72,0,0,0,399.25,283.17Z" style="fill:#263238"></path><path d="M396.49,184l-3.25,2.1s-17.63,4.47-20.54,9.4a21,21,0,0,0-2.41,5.72l-7.15,29.46-15.95-8.55-6.59,14.43,18.74,12.5a11.93,11.93,0,0,0,15.94-2.77l.36,4.34-.83,97.11,17.6,1.25-2.13-98.78C390.56,226.16,394.69,189.61,396.49,184Z" style="fill:#e0e0e0"></path><path d="M375.15,203.91a3.39,3.39,0,0,0,0,.46c0,.33,0,.77,0,1.32,0,1.18-.05,2.83-.09,4.85-.05,4.09-.07,9.75,0,16s.19,11.91.32,16c.08,2,.14,3.66.18,4.84,0,.55,0,1,.07,1.32a2.43,2.43,0,0,0,0,.46,4.13,4.13,0,0,0,0-.46c0-.34,0-.77,0-1.32,0-1.18-.05-2.83-.08-4.85-.08-4.09-.17-9.74-.23-16s-.07-11.9-.08-16c0-2,0-3.67,0-4.85,0-.55,0-1,0-1.32A2.77,2.77,0,0,0,375.15,203.91Z" style="fill:#263238"></path><path d="M433.45,256.18l2.46-25.9,11.2-25.12c.61-2.1-3.16-8.14-5.09-9.15l-14.84-7.47-4.3-5.08-4.2,16.29c-1.27,4.91-2.09,12.79-3.13,25.76l-1.45,28.73a60.47,60.47,0,0,0,.7,12.75l7.87,80.48s26,3.38,26.58-.14S433.45,256.18,433.45,256.18Z" style="fill:#e0e0e0"></path><path d="M434.42,245.51c.14,0,1.41-9.14,2.84-20.46s2.48-20.51,2.34-20.53-1.41,9.15-2.84,20.47S434.29,245.5,434.42,245.51Z" style="fill:#263238"></path><path d="M426,188.43a1.49,1.49,0,0,1,.07.38c0,.26.05.64.07,1.13a36.52,36.52,0,0,1-.24,4.15c-.19,1.76-.49,3.86-.85,6.2-.18,1.18-.37,2.41-.57,3.7a2,2,0,0,1-.44,1,1.79,1.79,0,0,1-1,.55,6,6,0,0,1-2.15-.06l.24-.42a7.23,7.23,0,0,1,1,3.65,24.41,24.41,0,0,1-1.64,9,54.7,54.7,0,0,1-3,6.82c-.49.93-.94,1.77-1.35,2.53L415,228.93c-.28.46-.52.84-.72,1.15s-.26.4-.28.39.05-.16.19-.44.38-.73.64-1.2.64-1.18,1-1.89l1.27-2.55a60.3,60.3,0,0,0,2.87-6.82,25.06,25.06,0,0,0,1.58-8.81,7.17,7.17,0,0,0-.88-3.35l-.34-.51.58.09a5.63,5.63,0,0,0,2,.08,1.29,1.29,0,0,0,1.07-1.16c.21-1.28.41-2.52.6-3.69.39-2.34.73-4.42,1-6.17s.35-3.15.39-4.12S425.94,188.43,426,188.43Z" style="fill:#263238"></path><path d="M392.71,186.43s-.18.5-.49,1.42-.69,2.28-1.09,4-.83,3.78-1.28,6.11q-.36,1.74-.75,3.66a1.26,1.26,0,0,0,.59,1.45,5.46,5.46,0,0,0,1.85.62l1,.21-1,.3a2.7,2.7,0,0,0-1.18.91,6.79,6.79,0,0,0-.8,1.48,15.37,15.37,0,0,0-.82,4.5,38.26,38.26,0,0,0,.07,4.31c.12,1.38.22,2.69.42,3.9s.33,2.35.54,3.38c.34,2.06.71,3.72,1,4.87.1.52.19,1,.26,1.32a2.78,2.78,0,0,1,.06.47s-.07-.15-.16-.44l-.36-1.31c-.3-1.13-.72-2.78-1.12-4.84-.22-1-.41-2.16-.6-3.39s-.33-2.53-.47-3.92a39.22,39.22,0,0,1-.1-4.38,15.81,15.81,0,0,1,.84-4.66,4.22,4.22,0,0,1,2.38-2.71v.51a6,6,0,0,1-2-.7,1.8,1.8,0,0,1-.74-.87,1.93,1.93,0,0,1-.06-1.11l.78-3.66c.49-2.32,1-4.38,1.4-6.1a34.54,34.54,0,0,1,1.25-4,8.61,8.61,0,0,1,.46-1A1.22,1.22,0,0,1,392.71,186.43Z" style="fill:#263238"></path><path d="M453.53,299.56a5.94,5.94,0,0,1-1.11,0l-3.11-.11-11-.51h-.23v-.23c.13-3.53.27-7.53.43-11.75.31-7.41.6-14.11.81-19.05.13-2.38.23-4.33.31-5.77l.11-1.57a2.18,2.18,0,0,1,.07-.54,2,2,0,0,1,0,.55c0,.42,0,.94,0,1.57,0,1.44-.08,3.39-.14,5.78-.17,4.94-.41,11.64-.66,19.05-.18,4.22-.34,8.22-.48,11.74l-.22-.24,10.95.7,3.11.24A7.23,7.23,0,0,1,453.53,299.56Z" style="fill:#263238"></path><rect x="416.54" y="309" width="53.96" height="38.51" rx="2.53" style="fill:#455a64"></rect><path d="M437.46,309a1,1,0,0,1,1.32,1c0,1.08-.88,8.34-.88,8.34s-2.27,8.07-1.65,9a1.47,1.47,0,0,0,2.3.11c.31-.43,2.87-7.18,2.87-7.18l.66-3.67s-1.32,11.63-.59,12.54a1.27,1.27,0,0,0,2,.09c.51-.46,1-5.6,1-5.6l1.2-6.86L445.6,328s.14,1.25,1.11,1.29a1.68,1.68,0,0,0,1.62-1.39l1.36-11.54s-.45,7.49.05,7.89c.67.52,1.29.35,1.51-.23.45-1.17,1.1-7.9,1.1-7.9l.62-12.83.47-3.54-12.31-.63,0,.87s-4.75,3.58-5.79,5a15.92,15.92,0,0,0-1.86,4.06Z" style="fill:#ae7461"></path><rect x="413.63" y="317.66" width="5.82" height="17.16" style="fill:#455a64"></rect><polygon points="415.21 325.06 410.5 323.63 410.47 329.33 415.04 328.28 415.21 325.06" style="fill:#455a64"></polygon><path d="M416.38,334.82a18.66,18.66,0,0,1,3.07-.18l-.17.18c0-2.13-.09-5.25-.09-8.72s0-6.31.08-8.44l.18.18a22.56,22.56,0,0,1-3.35-.18,21,21,0,0,1,3.35-.18h.18v.19c0,2.13.07,5.12.07,8.44s0,6.59-.08,8.72V335h-.17A18.14,18.14,0,0,1,416.38,334.82Z" style="fill:#263238"></path></g><g id="freepik--character-1--inject-8"><rect x="62.15" y="102.52" width="136.19" height="146.09" style="fill:#fff"></rect><path d="M155.17,142.82a23,23,0,0,1,8.37,19.62c-.31,3.59-1.34,7.67,1,10.43s6.81,2.7,9,5.51c2.57,3.3.34,8.17,1.24,12.26a8.28,8.28,0,0,0,8.76,6.25,32.28,32.28,0,0,1-16.12,6.81L163,197.89c1.69,2,1.2,5.25-.47,7.3s-4.22,3.14-6.75,3.92a41.1,41.1,0,0,1-35.95-6.21" style="fill:#263238"></path><path d="M87.45,173.84c.93-2.74,2.46-5.27,3.09-8.09C91.9,159.68,89,152.81,92,147.37c2.13-3.87,6.62-5.74,10.87-7s8.78-2.32,12-5.39c2.33-2.25,3.68-5.37,6-7.64,3.31-3.22,8.17-4.27,12.79-4.51s9.64.26,13.88,2.39,7.74,6.1,8.46,10.79c.34,2.29,0,4.68.74,6.89.77,2.43,2.65,4.33,3.8,6.6a12.17,12.17,0,0,1-3.19,14.56l-32.95,41.71c-6.86,2.52-23.39-.77-28.62-5.87S85.12,180.77,87.45,173.84Z" style="fill:#263238"></path><path d="M156.53,158.72c-1.25-9.56-8.39-20.9-17.88-19.25l-26.42,9.28c-2.88.5-4.34,2.77-4.08,5.69l5.62,65.91,21.23,16,10.51-15.93c-.32-5.82-.65-11.11-.64-11.05s12.12-2.86,13.59-19C159.19,182.35,157.92,169.33,156.53,158.72Z" style="fill:#ffbf9d"></path><path d="M152.29,174.61a2,2,0,0,1-1.84,2.2,2,2,0,0,1-2.24-1.7,2.07,2.07,0,0,1,1.84-2.21A2,2,0,0,1,152.29,174.61Z" style="fill:#263238"></path><path d="M132.07,175.14a2.06,2.06,0,0,1-1.84,2.2,2,2,0,0,1-2.24-1.71,2,2,0,0,1,1.84-2.2A2,2,0,0,1,132.07,175.14Z" style="fill:#263238"></path><path d="M155.15,166.63c-.22.37-2.12-.85-4.51-.53s-3.94,2-4.25,1.65c-.15-.14,0-.78.71-1.53a5.54,5.54,0,0,1,3.34-1.73,5.45,5.45,0,0,1,3.66.84C154.93,165.89,155.27,166.46,155.15,166.63Z" style="fill:#263238"></path><path d="M133.69,168.19c-.28.34-2.14-1-4.71-.95s-4.41,1.52-4.7,1.19c-.14-.15.14-.76.94-1.42a6.15,6.15,0,0,1,3.74-1.37,6,6,0,0,1,3.77,1.18C133.54,167.44,133.83,168,133.69,168.19Z" style="fill:#263238"></path><path d="M141.6,183.39a14.48,14.48,0,0,1,3.54-.89c.56-.09,1.08-.24,1.15-.63a2.83,2.83,0,0,0-.49-1.65l-2-4.18c-2.72-5.95-4.74-10.87-4.5-11s2.65,4.63,5.37,10.58c.66,1.47,1.29,2.87,1.89,4.22a3.23,3.23,0,0,1,.44,2.19,1.41,1.41,0,0,1-.87.88,3.44,3.44,0,0,1-1,.2A14.74,14.74,0,0,1,141.6,183.39Z" style="fill:#263238"></path><path d="M144.87,209.41a40.82,40.82,0,0,1-21.8-4.28s6.13,10.86,22,8.29Z" style="fill:#ff9a6c"></path><path d="M134.8,189.76a3.46,3.46,0,0,1,1.15-1.33,2.78,2.78,0,0,1,1.91-.18,4.53,4.53,0,0,1,2.49,1.3,2.7,2.7,0,0,1,.6,2.65h0c-.25.92-1.64,1.41-2.58,1.56a4.22,4.22,0,0,1-2.74-.6,2.43,2.43,0,0,1-1.39-1.84A3,3,0,0,1,134.8,189.76Z" style="fill:#FF725E"></path><path d="M135.29,186.66c.35,0,.52,2.35,2.68,3.91s4.7,1.13,4.74,1.47c0,.14-.53.5-1.61.6a6,6,0,0,1-3.95-1.08,5.23,5.23,0,0,1-2.1-3.3C134.89,187.27,135.12,186.66,135.29,186.66Z" style="fill:#263238"></path><path d="M133.59,159.56c-.18.61-2.41.48-5,1s-4.62,1.33-5,.82c-.17-.25.16-.84,1-1.48a8.55,8.55,0,0,1,3.64-1.55,8.47,8.47,0,0,1,3.95.2C133.15,158.83,133.66,159.27,133.59,159.56Z" style="fill:#263238"></path><path d="M153.87,158.55c-.41.53-2.18.12-4.27.24s-3.84.6-4.28.1c-.2-.24.05-.76.79-1.29a6.92,6.92,0,0,1,6.89-.28C153.77,157.79,154.05,158.29,153.87,158.55Z" style="fill:#263238"></path><path d="M102.81,151.25c1.49-2.26,4.16-3.4,6.69-4.35a147.69,147.69,0,0,1,34-8.3c1.42,2.39.05,5.62-2.14,7.33s-5,2.36-7.61,3.31-5.3,2.42-6.4,5c-1.17,2.72-.24,6-1.27,8.73-1.77,4.77-8.47,6.25-10.21,11-1.32,3.62.74,7.5,1.23,11.32a13.74,13.74,0,0,1-13.66,15.52q-1-20.61-2-41.24C101.3,156.72,101.22,153.64,102.81,151.25Z" style="fill:#263238"></path><path d="M74.79,185.68c2.19-1.92,4.92-3.58,5.82-6.35,1.3-4-1.91-8.83.22-12.5,1.94-3.35,7.57-3.12,9.38-6.55,1.42-2.67-.15-5.06.4-7.41s3.92-4.39,6.31-4.09l18.5,27.38c1.65,9.14,3.36,14,1.35,19.33-1.11,2.91-2.53,5.75-3,8.84s.31,6.59,2.82,8.44c-11.23.77-21.68-5.2-31.34-11L75,195.69a7.63,7.63,0,0,1-2.8-2.38C70.75,190.8,72.6,187.61,74.79,185.68Z" style="fill:#263238"></path><path d="M85,199a5.09,5.09,0,0,0,1.2.25,10.4,10.4,0,0,0,3.49-.22,10.5,10.5,0,0,0,8.18-9.1,11,11,0,0,0-.33-4.3,17.27,17.27,0,0,0-2-4.19,16.38,16.38,0,0,1-2.11-4.35,5.6,5.6,0,0,1,.65-4.75c1-1.36,2.93-1.67,4.7-2.37a4.51,4.51,0,0,0,3.21-4.68c0-2.05-.86-3.94-1.22-5.85a6.46,6.46,0,0,1,0-2.87,4,4,0,0,1,1.64-2.26c1.63-1.14,3.7-1.3,5.69-1.46a12.12,12.12,0,0,0,5.8-1.64,11,11,0,0,0,4-4.25,18.11,18.11,0,0,0,1.51-5.37,25.48,25.48,0,0,1,1.15-5,11.16,11.16,0,0,1,2.68-3.95,12.58,12.58,0,0,1,14.73-1.92,15.44,15.44,0,0,1,4.28,3.33,20.7,20.7,0,0,1,2.64,3.86,1.18,1.18,0,0,0-.11-.3c-.08-.18-.19-.47-.38-.82a14.38,14.38,0,0,0-2-2.91,15.22,15.22,0,0,0-4.3-3.48,13.24,13.24,0,0,0-7.14-1.66,13.4,13.4,0,0,0-8.14,3.51,11.9,11.9,0,0,0-2.84,4.13,25.23,25.23,0,0,0-1.2,5.15,17.48,17.48,0,0,1-1.48,5.17,10.23,10.23,0,0,1-3.77,4,11.51,11.51,0,0,1-5.52,1.54c-2,.16-4.19.31-6,1.58a4.62,4.62,0,0,0-1.9,2.62,7,7,0,0,0,0,3.16c.39,2,1.22,3.85,1.22,5.74a4.38,4.38,0,0,1-.68,2.56,4.52,4.52,0,0,1-2.13,1.54c-.84.34-1.74.57-2.61.93A5.37,5.37,0,0,0,93.56,172a6.12,6.12,0,0,0-.72,5.26,16.76,16.76,0,0,0,2.2,4.49,17.41,17.41,0,0,1,2,4.05,10.74,10.74,0,0,1,.35,4.11,10.28,10.28,0,0,1-3.07,6.31,10.69,10.69,0,0,1-4.71,2.6A12,12,0,0,1,85,199Z" style="fill:#455a64"></path><path d="M188.39,187.43a4.51,4.51,0,0,1-.07,2.93A3.85,3.85,0,0,1,186,192.7a4.06,4.06,0,0,1-4.11-1.16,3.79,3.79,0,0,1-.94-2.36,7.75,7.75,0,0,1,.46-2.84c.61-1.89,1.85-4,1.69-6.42a9.08,9.08,0,0,0-3.35-6.52,10.57,10.57,0,0,0-3.48-1.88,15.94,15.94,0,0,0-4-.61,21,21,0,0,1-3.88-.44,5.2,5.2,0,0,1-3-1.91,6.34,6.34,0,0,1-1.06-3.33,12.91,12.91,0,0,1,.33-3.46c.48-2.23,1.17-4.41,1.07-6.55a9.93,9.93,0,0,0-2-5.47,12.69,12.69,0,0,0-3.63-3.12,26.76,26.76,0,0,1-2.9-2,7.33,7.33,0,0,1-1.81-2.38s0,.07,0,.2a3.41,3.41,0,0,0,.22.55,6.12,6.12,0,0,0,1.38,1.82,22.92,22.92,0,0,0,2.87,2.16,12.83,12.83,0,0,1,3.46,3.09,9.57,9.57,0,0,1,1.78,5.22c.08,2-.61,4.13-1.12,6.41a13,13,0,0,0-.36,3.62,7,7,0,0,0,1.16,3.66,5.82,5.82,0,0,0,3.36,2.17,21.7,21.7,0,0,0,4,.46,15,15,0,0,1,3.83.58,10.1,10.1,0,0,1,3.27,1.75,8.49,8.49,0,0,1,3.15,6.06c.18,2.26-1,4.23-1.6,6.22a8.22,8.22,0,0,0-.44,3,4.18,4.18,0,0,0,1.1,2.64,4.47,4.47,0,0,0,4.56,1.2,4.28,4.28,0,0,0,2.61-4.89A2.15,2.15,0,0,0,188.39,187.43Z" style="fill:#263238"></path><path d="M70.65,248.61s3.87-13.73,16.74-20.32a136,136,0,0,1,28-10.26c.46,0,30.31.94,30.31.94s25.86.88,33.22,11.14a110.1,110.1,0,0,1,10.89,18.5Z" style="fill:#ffbf9d"></path><path d="M198.29,248.61s0-.24,0-.7,0-1.13,0-2c0-1.79,0-4.43,0-7.87,0-6.88,0-17-.06-29.75,0-25.59-.07-62.09-.11-105.75l.22.22-136.17,0h0l.26-.26c0,53.69,0,103.88,0,146.09l-.22-.23,98.73.12,27.65.06,7.3,0,2.51,0-2.46,0-7.26,0-27.6.05-98.87.12h-.22v-.22c0-42.21,0-92.4,0-146.09v-.26h.28l136.17,0h.23v.23c-.05,43.72-.08,80.27-.11,105.89,0,12.78,0,22.84-.06,29.71,0,3.42,0,6,0,7.82,0,.88,0,1.54,0,2S198.29,248.61,198.29,248.61Z" style="fill:#263238"></path><path d="M96.31,248.25A20.41,20.41,0,0,1,95,243.92a19.82,19.82,0,0,1-.85-4.46,19.52,19.52,0,0,1,1.35,4.33A19.82,19.82,0,0,1,96.31,248.25Z" style="fill:#ff9a6c"></path><path d="M172.5,248.61a19.35,19.35,0,0,1,.3-4.53,20.39,20.39,0,0,1,.83-4.46,20.43,20.43,0,0,1-.31,4.53A20.22,20.22,0,0,1,172.5,248.61Z" style="fill:#ff9a6c"></path><polygon points="75.69 259.69 189.84 259.69 189.84 248.61 75.53 248.61 75.69 259.69" style="opacity:0.30000000000000004"></polygon></g></svg>
